#!OML:ASF I:\Random Stuff\random\construction\7_22_03\Session 2\subj1.ASF
:FULLY-SPECIFIED
:DEGREES
1905
root -8.61325 17.6495 -5.99636 -142.156 66.8713 -160.917
lowerback 16.5548 1.75639 -6.94263
upperback 7.10958 1.89122 -6.81966
thorax -1.59489 1.25557 -3.65022
lowerneck -19.1057 -1.4128 2.48847
upperneck 46.4148 0.210379 1.48705
head 23.0473 1.51563 0.723655
rclavicle -1.43125e-014 -3.02153e-014
rhumerus -14.8238 58.6268 -58.8018
rradius 83.1973
rwrist 10.0484
rhand -18.7371 -3.01522
rfingers 7.12502
rthumb 7.55892 -32.8602
lclavicle -1.43125e-014 -3.02153e-014
lhumerus 36.9426 -71.5369 65.7308
lradius 34.4565
lwrist -0.212224
lhand -18.647 59.7201
lfingers 7.12502
lthumb 7.64589 -630.438
rfemur -11.2941 -7.80976 21.2627
rtibia -3.97569e-014
rfoot -3.32649 -15.6006
rtoes -14.4993
lfemur -40.5943 -9.73162 -5.03562
ltibia 33.4066
lfoot -13.5008 -3.40357
ltoes -30.5382
1906
root -8.62321 17.6526 -5.99829 -142.286 66.9449 -161.074
lowerback 16.4641 1.78849 -7.00825
upperback 7.11468 1.93175 -6.76452
thorax -1.54473 1.27086 -3.55689
lowerneck -19.1286 -1.45123 2.38001
upperneck 46.3447 0.19781 1.4266
head 22.9909 1.47972 0.704655
rclavicle 3.02153e-014 -5.725e-014
rhumerus -15.1443 58.0934 -58.9494
rradius 83.3303
rwrist 7.30139
rhand -19.2175 -2.9605
rfingers 7.12502
rthumb 7.09521 -32.8216
lclavicle 3.02153e-014 -5.725e-014
lhumerus 37.1459 -71.5594 65.6184
lradius 34.4728
lwrist -0.045209
lhand -18.8393 59.6456
lfingers 7.12502
lthumb 7.46023 -630.506
rfemur -11.3453 -7.79545 21.1553
rtibia 3.18055e-014
rfoot -3.15543 -15.4518
rtoes -16.6904
lfemur -40.5863 -9.76148 -5.1253
ltibia 33.3006
lfoot -13.4184 -3.31228
ltoes -30.8308
1907
root -8.63361 17.6541 -6.00052 -142.402 66.9748 -161.27
lowerback 16.3162 1.78774 -7.0385
upperback 7.11108 1.93841 -6.7154
thorax -1.47366 1.26905 -3.48122
lowerneck -19.1206 -1.43387 2.31876
upperneck 46.2827 0.255824 1.38733
head 22.9304 1.48192 0.705636
rclavicle 7.95139e-015 9.54166e-015
rhumerus -15.4446 57.5118 -59.0896
rradius 83.4966
rwrist 3.89866
rhand -19.7696 -3.22763
rfingers 7.12502
rthumb 6.56228 -33.106
lclavicle 7.95139e-015 9.54166e-015
lhumerus 36.9748 -71.4914 65.9068
lradius 34.4628
lwrist -0.0430295
lhand -19.045 59.5686
lfingers 7.12502
lthumb 7.26175 -630.576
rfemur -11.4469 -7.82493 21.0655
rtibia -3.02153e-014
rfoot -3.13527 -15.4297
rtoes -16.7985
lfemur -40.6553 -9.81174 -5.19159
ltibia 33.1933
lfoot -13.2177 -3.23448
ltoes -30.4122
1908
root -8.64455 17.6538 -6.00122 -142.592 67.0031 -161.502
lowerback 16.2669 1.78293 -7.04764
upperback 7.09148 1.93134 -6.70129
thorax -1.46975 1.26377 -3.45784
lowerneck -19.1383 -1.41462 2.32985
upperneck 46.251 0.328403 1.27314
head 22.908 1.49461 0.656659
rclavicle 5.40694e-014 -3.49861e-014
rhumerus -15.9081 56.801 -59.3637
rradius 83.7425
rwrist -0.43181
rhand -20.3582 -3.5734
rfingers 7.12502
rthumb 5.99397 -33.4686
lclavicle 5.40694e-014 -3.49861e-014
lhumerus 36.6524 -71.415 66.3301
lradius 34.4106
lwrist -0.170172
lhand -19.1837 59.3836
lfingers 7.12502
lthumb 7.1278 -630.756
rfemur -11.5077 -7.8646 20.9612
rtibia 9.54166e-015
rfoot -3.22621 -15.5885
rtoes -15.0072
lfemur -40.6826 -9.57422 -5.41642
ltibia 33.1022
lfoot -13.0868 -3.47823
ltoes -30.3907
1909
root -8.65282 17.652 -5.99982 -142.686 67.0605 -161.582
lowerback 16.2735 1.79294 -7.08737
upperback 7.04346 1.92738 -6.676
thorax -1.52685 1.25939 -3.40945
lowerneck -19.1125 -1.40327 2.32459
upperneck 46.2235 0.410893 1.13636
head 22.8723 1.50541 0.600519
rclavicle 1.90833e-014 2.8625e-014
rhumerus -16.4368 56.0531 -59.6984
rradius 84.0588
rwrist -5.22556
rhand -20.6935 -3.86709
rfingers 7.12502
rthumb 5.67026 -33.7712
lclavicle 1.90833e-014 2.8625e-014
lhumerus 36.1596 -71.3145 66.8633
lradius 34.3431
lwrist -0.236215
lhand -19.2319 59.1136
lfingers 7.12502
lthumb 7.08133 -631.025
rfemur -11.5283 -7.84257 20.892
rtibia 2.06736e-014
rfoot -3.20494 -15.6781
rtoes -14.1895
lfemur -40.6438 -9.30468 -5.59768
ltibia 33.028
lfoot -13.0449 -3.74234
ltoes -30.3927
1910
root -8.66034 17.6513 -5.99721 -142.78 67.1185 -161.626
lowerback 16.3135 1.79146 -7.12653
upperback 7.02991 1.91144 -6.64082
thorax -1.56484 1.24971 -3.34929
lowerneck -19.1226 -1.36483 2.2243
upperneck 46.1931 0.515162 1.12527
head 22.8492 1.5214 0.637742
rclavicle -1.59028e-015 -2.8625e-014
rhumerus -16.8468 55.1306 -59.9629
rradius 84.4507
rwrist -9.76819
rhand -20.8328 -4.34009
rfingers 7.12502
rthumb 5.53573 -34.2478
lclavicle -1.59028e-015 -2.8625e-014
lhumerus 35.9162 -71.2088 67.1494
lradius 34.2529
lwrist -0.164568
lhand -19.2864 59.0092
lfingers 7.12502
lthumb 7.02871 -631.128
rfemur -11.5137 -7.81169 20.8292
rtibia -3.81667e-014
rfoot -3.14038 -15.6603
rtoes -14.2767
lfemur -40.5721 -9.37232 -5.61289
ltibia 32.9568
lfoot -13.0052 -3.68101
ltoes -30.001
1911
root -8.669 17.6533 -5.99415 -142.783 67.2095 -161.669
lowerback 16.2208 1.71927 -7.21746
upperback 7.00003 1.8088 -6.6768
thorax -1.54894 1.19702 -3.31542
lowerneck -19.1366 -1.20389 2.40823
upperneck 46.1976 0.734589 1.04552
head 22.8618 1.62326 0.610717
rclavicle 3.18055e-014 6.36111e-015
rhumerus -17.1534 54.2433 -60.3687
rradius 84.8462
rwrist -13.9146
rhand -21.0746 -5.05509
rfingers 7.12502
rthumb 5.30233 -34.9688
lclavicle 3.18055e-014 6.36111e-015
lhumerus 35.5057 -70.9652 67.3976
lradius 34.1823
lwrist -0.135942
lhand -19.354 59.0337
lfingers 7.12502
lthumb 6.96348 -631.101
rfemur -11.609 -7.75056 20.7701
rtibia -1.59028e-015
rfoot -3.0802 -15.6058
rtoes -14.4853
lfemur -40.5806 -9.38539 -5.63068
ltibia 32.8891
lfoot -13.0072 -3.6225
ltoes -29.745
1912
root -8.67744 17.6542 -5.99324 -142.934 67.2819 -161.817
lowerback 16.1746 1.58104 -7.35133
upperback 6.94855 1.60867 -6.78433
thorax -1.57877 1.09949 -3.32015
lowerneck -19.0525 -0.950237 2.92142
upperneck 46.1938 1.03678 0.818976
head 22.8343 1.79778 0.456677
rclavicle -1.59028e-015 -6.36111e-014
rhumerus -17.3334 53.5554 -60.7853
rradius 85.2611
rwrist -18.6946
rhand -20.8819 -5.92662
rfingers 7.12502
rthumb 5.48837 -35.8355
lclavicle -1.59028e-015 -6.36111e-014
lhumerus 34.8793 -70.6584 67.6171
lradius 34.2046
lwrist -0.102973
lhand -19.3364 59.0433
lfingers 7.12502
lthumb 6.98047 -631.092
rfemur -11.6266 -7.73468 20.6608
rtibia -1.59028e-015
rfoot -3.10964 -15.5396
rtoes -14.2037
lfemur -40.5531 -9.4251 -5.71255
ltibia 32.826
lfoot -12.9399 -3.55773
ltoes -29.7329
1913
root -8.6843 17.6553 -5.9936 -143.106 67.3876 -161.945
lowerback 16.1667 1.53076 -7.41665
upperback 6.9283 1.53415 -6.86329
thorax -1.59449 1.06493 -3.35563
lowerneck -18.9737 -0.80413 3.20573
upperneck 46.1506 1.20945 0.689075
head 22.7716 1.89499 0.368248
rclavicle 5.24792e-014 3.33958e-014
rhumerus -17.4485 52.5822 -60.8327
rradius 85.7446
rwrist -25.08
rhand -19.7673 -6.95894
rfingers 7.12502
rthumb 6.56442 -36.8372
lclavicle 5.24792e-014 3.33958e-014
lhumerus 34.7973 -70.5736 67.4783
lradius 34.2642
lwrist 0.0390404
lhand -19.2818 59.0503
lfingers 7.12502
lthumb 7.0331 -631.087
rfemur -11.5814 -7.68839 20.5263
rtibia 1.27222e-014
rfoot -3.09396 -15.4294
rtoes -14.8201
lfemur -40.463 -9.56166 -5.7769
ltibia 32.7657
lfoot -12.8662 -3.33508
ltoes -29.9157
1914
root -8.69143 17.6572 -5.99565 -143.036 67.5192 -161.887
lowerback 16.0661 1.54508 -7.36288
upperback 6.91884 1.56896 -6.89139
thorax -1.54993 1.08188 -3.4178
lowerneck -18.9484 -0.775479 3.19946
upperneck 46.1255 1.25192 0.697063
head 22.7398 1.90972 0.382747
rclavicle 5.56597e-014 -6.52014e-014
rhumerus -17.4746 51.385 -60.5815
rradius 86.1443
rwrist -32.7203
rhand -18.6146 -8.08605
rfingers 7.12502
rthumb 7.67719 -37.9267
lclavicle 5.56597e-014 -6.52014e-014
lhumerus 34.7549 -70.5302 67.5215
lradius 34.3004
lwrist 0.0776371
lhand -19.2665 59.0174
lfingers 7.12502
lthumb 7.0479 -631.12
rfemur -11.6391 -7.57623 20.4518
rtibia 3.18055e-015
rfoot -2.91867 -15.2621
rtoes -16.9418
lfemur -40.4324 -9.68639 -5.75633
ltibia 32.7118
lfoot -12.8122 -3.0542
ltoes -30.031
1915
root -8.6993 17.6571 -5.99662 -142.936 67.6695 -161.792
lowerback 16.0162 1.57256 -7.2796
upperback 6.89294 1.61746 -6.94847
thorax -1.54811 1.10794 -3.53262
lowerneck -18.9498 -0.798626 3.16259
upperneck 46.109 1.2022 0.739555
head 22.7234 1.89004 0.40073
rclavicle -5.725e-014 -3.97569e-014
rhumerus -17.5201 50.1262 -60.366
rradius 86.4224
rwrist -40.5745
rhand -17.5462 -8.86664
rfingers 7.12502
rthumb 8.70832 -38.667
lclavicle -5.725e-014 -3.97569e-014
lhumerus 34.4372 -70.4644 67.8229
lradius 34.3217
lwrist -0.016526
lhand -19.3186 58.9244
lfingers 7.12502
lthumb 6.99759 -631.211
rfemur -11.7115 -7.44006 20.3827
rtibia -7.95139e-015
rfoot -2.77205 -15.175
rtoes -18.2525
lfemur -40.4055 -9.68773 -5.76875
ltibia 32.6674
lfoot -12.6992 -2.91749
ltoes -29.8807
1916
root -8.70579 17.6566 -5.99537 -142.972 67.8425 -161.815
lowerback 16.0249 1.60934 -7.25952
upperback 6.85952 1.66379 -7.02967
thorax -1.58463 1.13428 -3.64065
lowerneck -18.9654 -0.829071 3.1687
upperneck 46.0496 1.12476 0.739248
head 22.6745 1.86061 0.378404
rclavicle -1.27222e-014 4.77083e-014
rhumerus -17.7762 49.0966 -60.304
rradius 86.631
rwrist -46.8823
rhand -16.5017 -9.01941
rfingers 7.12502
rthumb 9.71613 -38.7753
lclavicle -1.27222e-014 4.77083e-014
lhumerus 33.9891 -70.3774 68.2301
lradius 34.313
lwrist -0.15305
lhand -19.3821 58.8429
lfingers 7.12502
lthumb 6.93635 -631.291
rfemur -11.7449 -7.31248 20.2608
rtibia 2.38542e-015
rfoot -2.73261 -15.1373
rtoes -18.364
lfemur -40.3484 -9.61044 -5.86636
ltibia 32.6331
lfoot -12.6164 -2.95025
ltoes -29.3185
1917
root -8.71221 17.6578 -5.99417 -142.97 68.0152 -161.818
lowerback 15.993 1.62828 -7.29511
upperback 6.82981 1.68327 -7.09026
thorax -1.59752 1.145 -3.68882
lowerneck -18.9672 -0.78692 3.27416
upperneck 45.9618 1.14457 0.679791
head 22.5989 1.87534 0.326121
rclavicle -4.45278e-014 6.67916e-014
rhumerus -17.8909 48.3248 -60.1299
rradius 86.829
rwrist -51.5646
rhand -15.2586 -9.58762
rfingers 7.12502
rthumb 10.9153 -39.2839
lclavicle -4.45278e-014 6.67916e-014
lhumerus 33.5266 -70.1923 68.6523
lradius 34.2678
lwrist -0.298233
lhand -19.399 58.7608
lfingers 7.12502
lthumb 6.91998 -631.372
rfemur -11.7966 -7.17916 20.1517
rtibia 8.74653e-015
rfoot -2.70175 -15.06
rtoes -18.5073
lfemur -40.3067 -9.51866 -5.96097
ltibia 32.6014
lfoot -12.6151 -2.96361
ltoes -29.15
1918
root -8.72081 17.6576 -5.995 -142.872 68.1859 -161.755
lowerback 15.9362 1.63072 -7.32979
upperback 6.7955 1.6821 -7.13953
thorax -1.60298 1.14436 -3.72065
lowerneck -18.9406 -0.708761 3.41315
upperneck 45.8967 1.2128 0.635893
head 22.5348 1.91685 0.288121
rclavicle 1.59028e-015 5.24792e-014
rhumerus -17.8987 47.8663 -59.9346
rradius 86.8327
rwrist -54.5423
rhand -14.389 -10.0043
rfingers 7.12502
rthumb 11.754 -39.6545
lclavicle 1.59028e-015 5.24792e-014
lhumerus 33.3424 -70.0342 68.793
lradius 34.2228
lwrist -0.333378
lhand -19.416 58.6459
lfingers 7.12502
lthumb 6.90357 -631.487
rfemur -11.9048 -7.03335 20.0685
rtibia -3.10104e-014
rfoot -2.61194 -15.0153
rtoes -18.8668
lfemur -40.3095 -9.45031 -6.01182
ltibia 32.5755
lfoot -12.6353 -2.86183
ltoes -29.4323
